<svg width="30" height="30" viewBox="0 0 30 30" fill="none" xmlns="http://www.w3.org/2000/svg">
<path d="M15 0C6.72938 0 0 6.72938 0 15C0 23.2706 6.72938 30 15 30C23.2706 30 30 23.2706 30 15C30 6.72938 23.2706 0 15 0ZM15 28.125C7.7625 28.125 1.875 22.2356 1.875 15C1.875 7.7625 7.7625 1.875 15 1.875C22.2356 1.875 28.125 7.7625 28.125 15C28.125 22.2356 22.2356 28.125 15 28.125Z" fill="black" fill-opacity="0.6"/>
<path d="M15 3.75C14.2125 3.75 13.4437 3.8325 12.7012 3.98625C14.0662 5.92125 15.3056 7.935 16.3968 10.0219C18.4612 9.06 20.4037 7.81875 22.1775 6.3375C20.2293 4.72125 17.7281 3.75 15 3.75Z" fill="black" fill-opacity="0.6"/>
<path d="M23.5144 7.66125C21.585 9.28688 19.4625 10.635 17.2087 11.6888C17.7019 12.7163 18.1594 13.7569 18.5831 14.8144C21.0731 14.3025 23.6644 14.2556 26.2331 14.6813C26.1581 12 25.1494 9.555 23.5144 7.66125Z" fill="black" fill-opacity="0.6"/>
<path d="M10.8188 4.56189C7.44188 5.91564 4.88063 8.85564 4.04813 12.465C7.68938 12.6206 11.2931 12.0131 14.6475 10.7325C13.5206 8.59314 12.2438 6.53064 10.8188 4.56189Z" fill="black" fill-opacity="0.6"/>
<path d="M15.4875 12.4293C12.24 13.6949 8.77125 14.3849 5.24437 14.3849C4.75875 14.3849 4.27125 14.3549 3.78375 14.3287C3.77062 14.5518 3.75 14.7731 3.75 14.9999C3.75 17.7618 4.74938 20.2893 6.40125 22.2468C9.10312 18.8924 12.735 16.4887 16.755 15.2812C16.3631 14.3174 15.9394 13.3687 15.4875 12.4293Z" fill="black" fill-opacity="0.6"/>
<path d="M19.2712 16.59C20.1656 19.0837 20.8669 21.6469 21.3806 24.2606C23.9156 22.5112 25.6856 19.7494 26.13 16.5581C23.8312 16.1512 21.5081 16.17 19.2712 16.59Z" fill="black" fill-opacity="0.6"/>
<path d="M17.43 17.0249C13.65 18.1293 10.2356 20.398 7.73248 23.5799C9.69373 25.243 12.2269 26.2499 15 26.2499C16.665 26.2499 18.2419 25.8787 19.6631 25.228C19.1475 22.4268 18.3975 19.6855 17.43 17.0249Z" fill="black" fill-opacity="0.6"/>
</svg>
